# xmcd CD database file
#
# Track frame offsets:
#	150
#	17660
#	37882
#	55395
#
# Disc length: 1005 seconds
#
# Revision: 1
# Processed by: cddbd v1.5PL3 Copyright (c) Steve Scherf et al.
# Submitted via: CDex 1.50beta8
#
DISCID=2803eb04
DTITLE=メロキュア - STRATOS4
DYEAR=2003
DGENRE=Anime
TTITLE0=1st Priority
TTITLE1=So far, so near
TTITLE2=1st Priority (KARAOKE)
TTITLE3=So far, so near (KARAOKE)
EXTD=YEAR: 2003
EXTT0=
EXTT1=
EXTT2=
EXTT3=
PLAYORDER=
